<svg id="Capa_1" enable-background="new 0 0 512 512" height="512" viewBox="0 0 512 512" width="512" xmlns="http://www.w3.org/2000/svg"><path d="m388.481 232.68c-5.919-8.879-19.02-8.913-24.962 0l-55.547 83.32h136.056z"/><path d="m301 496c0 8.284 6.716 15 15 15h46v-165h-61z"/><path d="m392 511h44c8.284 0 15-6.716 15-15v-150h-59z"/><path d="m91 331h90v30h-90z"/><path d="m467 1h-422c-24.813 0-45 20.187-45 45v75h512v-75c0-24.813-20.187-45-45-45zm-391 90c-8.284 0-15-6.716-15-15s6.716-15 15-15 15 6.716 15 15-6.716 15-15 15zm60 0c-8.284 0-15-6.716-15-15s6.716-15 15-15 15 6.716 15 15-6.716 15-15 15zm60 0c-8.284 0-15-6.716-15-15s6.716-15 15-15 15 6.716 15 15-6.716 15-15 15zm240 0h-90c-8.284 0-15-6.716-15-15s6.716-15 15-15h90c8.284 0 15 6.716 15 15s-6.716 15-15 15z"/><path d="m0 406c0 24.813 20.187 45 45 45h226v-120c0-8.914 2.613-17.545 7.558-24.961 65.636-98.454 60.855-91.608 63.92-95.039h-266.478c-8.284 0-15-6.716-15-15s6.716-15 15-15h270c9.228 0 16.434 8.322 14.749 17.674 19.549-7.033 41.22.154 52.694 17.365l60 90c4.944 7.416 7.557 16.047 7.557 24.961v117.759c17.977-5.901 31-22.833 31-42.759v-255h-512zm76-165h210c8.284 0 15 6.716 15 15s-6.716 15-15 15h-210c-8.284 0-15-6.716-15-15s6.716-15 15-15zm-15 75c0-8.284 6.716-15 15-15h120c8.284 0 15 6.716 15 15v60c0 8.284-6.716 15-15 15h-120c-8.284 0-15-6.716-15-15z"/></svg>