<?xml version="1.0" encoding="iso-8859-1"?>
<!-- Generator: Adobe Illustrator 19.0.0, SVG Export Plug-In . SVG Version: 6.00 Build 0)  -->
<svg version="1.1" id="Layer_1" xmlns="http://www.w3.org/2000/svg" xmlns:xlink="http://www.w3.org/1999/xlink" x="0px" y="0px"
	 viewBox="0 0 512 512" style="enable-background:new 0 0 512 512;" xml:space="preserve">
<circle style="fill:#9EA7DB;" cx="256" cy="256" r="256"/>
<path style="fill:#FAD55C;" d="M250.954,371.29h-42.225c-8.145,0-11.36-4.413-13.871-12.135l-8.872-27.391
	c-1.385-4.248-1.807-8.332-5.234-11.196c-23.964-20.068-39.173-50.181-39.173-83.886c0-60.415,48.961-109.376,109.376-109.376
	s109.376,48.961,109.376,109.376c0,33.705-15.233,63.818-39.173,83.886c-3.427,2.863-3.849,6.947-5.234,11.196l-8.896,27.391
	c-2.511,7.722-5.727,12.135-13.848,12.135H250.954z"/>
<path style="fill:#EDCA56;" d="M269.59,371.29h23.589c8.121,0,11.337-4.413,13.848-12.135l8.896-27.391
	c1.385-4.248,1.807-8.332,5.234-11.196c23.941-20.068,39.173-50.181,39.173-83.886c0-60.415-48.961-109.376-109.376-109.376
	c-2.253,0-4.506,0.07-6.736,0.211c49.289,11.571,85.975,55.791,85.975,108.601c0,34.362-15.514,65.109-39.948,85.552
	c-3.497,2.934-3.92,7.088-5.328,11.43l-9.083,27.931C274.308,365.728,272.524,369.248,269.59,371.29z"/>
<path style="fill:#FADC78;" d="M232.318,371.29h-23.589c-8.145,0-11.36-4.413-13.871-12.135l-8.872-27.391
	c-1.385-4.248-1.807-8.332-5.234-11.196c-23.964-20.068-39.173-50.181-39.173-83.886c0-60.415,48.961-109.376,109.376-109.376
	c2.253,0,4.506,0.07,6.713,0.211C208.4,139.09,171.692,183.31,171.692,236.12c0,34.362,15.538,65.109,39.971,85.552
	c3.497,2.934,3.92,7.088,5.328,11.43l9.06,27.931C227.576,365.728,229.36,369.248,232.318,371.29z"/>
<path style="fill:#68606E;" d="M209.997,371.29h81.891v38.798c0,11.548-9.435,21.007-20.983,21.007h-39.901
	c-11.548,0-21.007-9.459-21.007-21.007V371.29z"/>
<path style="fill:#817C85;" d="M209.997,371.29h11.102v44.267c0,5.68,2.019,10.914,5.351,15.045
	c-9.365-2.089-16.453-10.515-16.453-20.514V371.29z"/>
<path style="fill:#58515E;" d="M267.853,431.095c-2.535,3.943-9.154,6.736-16.899,6.736s-14.364-2.793-16.899-6.736H267.853z"/>
<g>
	<path style="fill:#EAEAED;" d="M247.081,78.018c0-2.136,1.737-3.849,3.873-3.849s3.849,1.713,3.849,3.849v31.85
		c0,2.136-1.713,3.849-3.849,3.849s-3.873-1.713-3.873-3.849V78.018z"/>
	<path style="fill:#EAEAED;" d="M286.724,96.584c0.563-2.065,2.676-3.286,4.741-2.723c2.042,0.563,3.262,2.676,2.723,4.741
		l-4.741,17.463c-0.563,2.042-2.676,3.262-4.741,2.699c-2.042-0.54-3.262-2.676-2.699-4.718L286.724,96.584z"/>
	<path style="fill:#EAEAED;" d="M332.211,100.105c1.08-1.831,3.45-2.464,5.281-1.385c1.854,1.08,2.464,3.45,1.385,5.281
		l-16.054,27.508c-1.08,1.831-3.45,2.464-5.281,1.385c-1.831-1.08-2.464-3.45-1.385-5.281L332.211,100.105z"/>
	<path style="fill:#EAEAED;" d="M356.926,138.456c1.526-1.502,3.967-1.479,5.469,0.047c1.502,1.526,1.479,3.967-0.047,5.469
		l-11.337,11.172c-1.526,1.479-3.967,1.455-5.469-0.047c-1.502-1.526-1.479-3.967,0.047-5.469L356.926,138.456z"/>
	<path style="fill:#EAEAED;" d="M395.982,162.937c1.854-1.056,4.201-0.399,5.258,1.455c1.056,1.878,0.399,4.225-1.479,5.281
		l-27.719,15.632c-1.878,1.056-4.225,0.399-5.281-1.455c-1.033-1.878-0.376-4.225,1.479-5.281L395.982,162.937z"/>
	<path style="fill:#EAEAED;" d="M397.977,208.518c2.065-0.54,4.154,0.728,4.694,2.793c0.516,2.065-0.728,4.154-2.793,4.694
		l-15.444,3.92c-2.065,0.516-4.154-0.728-4.694-2.793c-0.516-2.065,0.728-4.178,2.793-4.694L397.977,208.518z"/>
	<path style="fill:#EAEAED;" d="M419.336,249.334c2.136,0.047,3.849,1.807,3.802,3.92c-0.023,2.136-1.784,3.849-3.92,3.802
		l-31.827-0.469c-2.136-0.047-3.849-1.784-3.802-3.92c0.023-2.136,1.784-3.849,3.92-3.802L419.336,249.334z"/>
	<path style="fill:#EAEAED;" d="M398.071,289.705c2.042,0.587,3.239,2.723,2.652,4.788c-0.587,2.042-2.723,3.216-4.788,2.629
		l-15.303-4.389c-2.042-0.587-3.216-2.723-2.629-4.765c0.587-2.065,2.723-3.239,4.765-2.652L398.071,289.705z"/>
	<path style="fill:#EAEAED;" d="M395.935,335.732c1.831,1.103,2.418,3.497,1.314,5.305c-1.103,1.831-3.497,2.418-5.305,1.314
		l-27.25-16.477c-1.831-1.103-2.418-3.474-1.314-5.304s3.474-2.418,5.304-1.314L395.935,335.732z"/>
	<path style="fill:#EAEAED;" d="M215.184,96.584c-0.563-2.065-2.676-3.286-4.741-2.723s-3.286,2.676-2.723,4.741l4.741,17.463
		c0.54,2.042,2.676,3.262,4.718,2.699c2.065-0.54,3.286-2.676,2.723-4.718L215.184,96.584z"/>
	<path style="fill:#EAEAED;" d="M169.673,100.105c-1.056-1.831-3.427-2.464-5.281-1.385c-1.831,1.08-2.464,3.45-1.385,5.281
		l16.078,27.508c1.056,1.831,3.427,2.464,5.281,1.385c1.831-1.08,2.464-3.45,1.385-5.281L169.673,100.105z"/>
	<path style="fill:#EAEAED;" d="M144.958,138.456c-1.502-1.502-3.943-1.479-5.445,0.047c-1.502,1.526-1.479,3.967,0.047,5.469
		l11.337,11.172c1.526,1.479,3.967,1.455,5.469-0.047c1.479-1.526,1.479-3.967-0.047-5.469L144.958,138.456z"/>
	<path style="fill:#EAEAED;" d="M105.925,162.937c-1.854-1.056-4.225-0.399-5.258,1.455c-1.056,1.878-0.399,4.225,1.455,5.281
		l27.743,15.632c1.854,1.056,4.225,0.399,5.258-1.455c1.056-1.878,0.399-4.225-1.455-5.281L105.925,162.937z"/>
	<path style="fill:#EAEAED;" d="M103.93,208.518c-2.065-0.54-4.178,0.728-4.694,2.793c-0.516,2.065,0.728,4.154,2.793,4.694
		l15.421,3.92c2.065,0.516,4.178-0.728,4.694-2.793c0.54-2.065-0.728-4.178-2.793-4.694L103.93,208.518z"/>
	<path style="fill:#EAEAED;" d="M82.548,249.334c-2.112,0.047-3.826,1.807-3.802,3.92c0.047,2.136,1.807,3.849,3.92,3.802
		l31.85-0.469c2.136-0.047,3.826-1.784,3.802-3.92c-0.023-2.136-1.784-3.849-3.92-3.802L82.548,249.334z"/>
	<path style="fill:#EAEAED;" d="M103.836,289.705c-2.065,0.587-3.239,2.723-2.652,4.788c0.587,2.042,2.723,3.216,4.765,2.629
		l15.303-4.389c2.065-0.587,3.239-2.723,2.652-4.765c-0.587-2.065-2.723-3.239-4.765-2.652L103.836,289.705z"/>
	<path style="fill:#EAEAED;" d="M105.972,335.732c-1.831,1.103-2.418,3.497-1.314,5.305c1.103,1.831,3.474,2.418,5.304,1.314
		l27.25-16.477c1.831-1.103,2.418-3.474,1.314-5.304c-1.103-1.831-3.474-2.418-5.304-1.314L105.972,335.732z"/>
</g>
<g>
</g>
<g>
</g>
<g>
</g>
<g>
</g>
<g>
</g>
<g>
</g>
<g>
</g>
<g>
</g>
<g>
</g>
<g>
</g>
<g>
</g>
<g>
</g>
<g>
</g>
<g>
</g>
<g>
</g>
</svg>
